<svg xmlns="http://www.w3.org/2000/svg" aria-hidden="true" style="position:absolute;width:0;height:0;overflow:hidden">
  <defs>
  <!-- svg-icons WITH color #fafafa -->
    <symbol id="icon-arrow-down" viewBox="0 0 32 32">
      <path fill="none" stroke="#fafafa" stroke-width=".762" d="M16 .381C24.626.381 31.619 7.374 31.619 16S24.626 31.619 16 31.619.381 24.626.381 16 7.374.381 16 .381z" style="stroke:var(--color1, #fafafa)"/>
      <path fill="none" stroke="#fafafa" stroke-width="1.524" d="M19.81 14.095 16 17.905l-3.81-3.81" style="stroke:var(--color1, #fafafa)"/>
    </symbol>
    <symbol id="icon-arrow-up" viewBox="0 0 32 32">
      <path fill="none" stroke="#fafafa" stroke-width=".762" d="M16 31.619c8.626 0 15.619-6.993 15.619-15.619S24.626.381 16 .381.381 7.374.381 16 7.374 31.619 16 31.619z" style="stroke:var(--color1, #fafafa)"/>
      <path fill="none" stroke="#fafafa" stroke-width="1.524" d="M19.81 17.905 16 14.095l-3.81 3.81" style="stroke:var(--color1, #fafafa)"/>
    </symbol>
    <symbol id="icon-user" viewBox="0 0 32 32">
      <path fill="none" stroke="#fafafa" stroke-linecap="round" stroke-linejoin="round" stroke-width="2.667" d="M26.667 28c0-1.861 0-2.791-.23-3.548a5.333 5.333 0 0 0-3.556-3.556c-.757-.23-1.687-.23-3.548-.23h-6.667c-1.861 0-2.791 0-3.548.23a5.335 5.335 0 0 0-3.556 3.556c-.23.757-.23 1.687-.23 3.548M16 16a6 6 0 1 0 0-12 6 6 0 0 0 0 12z" style="stroke:var(--color1, #fafafa)"/>
    </symbol>
    <symbol id="icon-message-chat" viewBox="0 0 32 32">
      <path fill="none" stroke="#fafafa" stroke-linecap="round" stroke-linejoin="round" stroke-width="2.667" d="M8.126 14.972A10.66 10.66 0 0 1 8 13.334C8 7.443 12.807 2.667 18.737 2.667s10.737 4.776 10.737 10.667c0 1.331-.245 2.605-.693 3.779-.093.244-.14.366-.161.461s-.029.161-.031.257c-.002.097.011.205.037.42l.537 4.36c.058.472.087.708.009.88a.667.667 0 0 1-.343.335c-.173.075-.409.04-.879-.029l-4.247-.623a2.965 2.965 0 0 0-.434-.048c-.1.001-.169.008-.267.028s-.225.068-.477.163a10.78 10.78 0 0 1-3.787.683c-.558 0-1.105-.042-1.64-.124m-6.923 5.457c3.953 0 7.158-3.283 7.158-7.333s-3.205-7.333-7.158-7.333c-3.953 0-7.158 3.283-7.158 7.333 0 .814.13 1.597.369 2.329.101.309.152.464.168.57.017.11.02.172.014.284-.006.107-.033.227-.086.469l-.815 3.682 3.993-.545c.218-.03.327-.045.422-.044.1.001.153.006.252.026.093.019.232.067.51.165a6.994 6.994 0 0 0 2.332.398z" style="stroke:var(--color1, #fafafa)"/>
    </symbol>
    <symbol id="icon-brush" viewBox="0 0 32 32">
      <path fill="none" stroke="#fafafa" stroke-linecap="round" stroke-linejoin="round" stroke-width="2.667" d="M17.037 20 12 14.963M2.667 29.333c2.667 0 6.144.456 7.966-1.367a4.668 4.668 0 0 0-6.6-6.6c-1.823 1.822 0 5.3-1.367 7.967z" style="stroke:var(--color1, #fafafa)"/>
      <path fill="none" stroke="#fafafa" stroke-linecap="round" stroke-linejoin="round" stroke-width="2.667" d="M10.667 21.333c-.655-.655-.983-.983-1.168-1.326a2.668 2.668 0 0 1 .05-2.623c.198-.336.538-.651 1.218-1.28L23.924 3.921a2.94 2.94 0 0 1 4.153 4.153L15.894 21.231c-.63.68-.944 1.02-1.28 1.218-.805.475-1.8.495-2.623.05-.343-.185-.671-.513-1.326-1.168z" style="stroke:var(--color1, #fafafa)"/>
    </symbol>
    <symbol id="icon-hourglass" viewBox="0 0 32 32">
      <path fill="none" stroke="#fafafa" stroke-linecap="round" stroke-linejoin="round" stroke-width="2.667" d="M24.217 2.667H7.783c-.617 0-1.117.5-1.117 1.117a13.4 13.4 0 0 0 3.925 9.475l1.626 1.626c.161.161.242.242.3.32a1.335 1.335 0 0 1 0 1.594c-.058.077-.139.158-.3.32l-1.626 1.626a13.4 13.4 0 0 0-3.925 9.475c0 .617.5 1.117 1.117 1.117h16.434c.617 0 1.117-.5 1.117-1.117a13.4 13.4 0 0 0-3.925-9.475l-1.626-1.626c-.161-.161-.242-.242-.3-.32a1.332 1.332 0 0 1 0-1.594c.058-.077.139-.158.3-.32l1.626-1.626a13.4 13.4 0 0 0 3.925-9.475c0-.617-.5-1.117-1.117-1.117z" style="stroke:var(--color1, #fafafa)"/>
    </symbol>
    <symbol id="icon-jeff" viewBox="0 0 32 32">
      <path fill="#fafafa" d="m27.971 15.579.117-2.468-2.156 1.343-.669-1.109 2.29-1.126-2.29-1.126.669-1.126 2.156 1.343-.117-2.468h1.321l-.117 2.468 2.157-1.343.669 1.126-2.29 1.126 2.29 1.126-.669 1.109-2.157-1.343.117 2.468h-1.321zM23.106 11.579v1.417h-5.422v-1.417h5.422zm-3.944 9.053V10.527c0-.561.132-1.028.395-1.401a2.436 2.436 0 0 1 1.048-.842 3.477 3.477 0 0 1 1.401-.283c.384 0 .71.03.98.089s.467.111.593.154l-.447 1.425a4.79 4.79 0 0 0-.335-.089 2.155 2.155 0 0 0-.498-.049c-.453 0-.779.108-.98.324-.2.211-.301.518-.301.923v9.854h-1.856z" style="fill:var(--color1, #fafafa)"/>
      <path fill="#fafafa" d="M18.054 11.579v1.417h-5.422v-1.417h5.422zm-3.944 9.053V10.527c0-.561.132-1.028.395-1.401a2.436 2.436 0 0 1 1.048-.842 3.477 3.477 0 0 1 1.401-.283c.384 0 .71.03.98.089s.467.111.593.154l-.447 1.425a4.79 4.79 0 0 0-.335-.089 2.155 2.155 0 0 0-.498-.049c-.453 0-.779.108-.98.324-.2.211-.301.518-.301.923v9.854H14.11zM8.646 20.632c-.91 0-1.698-.19-2.363-.57s-1.179-.914-1.539-1.604c-.355-.695-.533-1.505-.533-2.43 0-.92.175-1.73.524-2.43.355-.7.852-1.246 1.49-1.636.643-.396 1.398-.593 2.263-.593.527 0 1.037.083 1.531.249s.938.428 1.331.786c.394.358.705.823.932 1.395.233.572.349 1.262.349 2.069v.626H5.233v-1.307h6.466l-.84.433c0-.551-.089-1.037-.266-1.46s-.444-.751-.799-.986c-.349-.241-.785-.361-1.306-.361s-.968.12-1.34.361c-.366.241-.646.559-.84.954s-.291.829-.291 1.299v.89c0 .615.111 1.136.333 1.564s.53.754.924.978c.399.225.863.337 1.39.337.344 0 .655-.048.932-.144.283-.096.527-.241.732-.433s.361-.43.466-.714l1.714.313c-.139.481-.383.904-.732 1.267s-.791.647-1.323.85c-.527.198-1.129.297-1.806.297zM1.439 11.506h1.708v9.688c.005.607-.1 1.12-.316 1.537s-.532.732-.949.944C1.466 23.892.954 24 .348 24H0v-1.521h.277c.411 0 .706-.111.886-.333s.271-.542.277-.96v-9.68zm.846-1.399c-.3 0-.556-.103-.767-.309s-.316-.453-.316-.74c0-.293.105-.542.316-.748s.467-.309.767-.309c.295 0 .548.103.759.309a.997.997 0 0 1 .324.748.987.987 0 0 1-.324.74 1.048 1.048 0 0 1-.759.309z" style="fill:var(--color1, #fafafa)"/>
    </symbol>
    <symbol id="icon-j" viewBox="0 0 32 32">
      <path fill="#fafafa" d="M7.829 28.118c-1.393 0-2.643-.247-3.75-.74-1.107-.504-1.985-1.239-2.632-2.204s-.97-2.138-.97-3.52v-.477h3.668v.477c0 .669.154 1.256.461 1.76.318.504.751.894 1.299 1.168.559.263 1.201.395 1.924.395.778 0 1.442-.165 1.99-.493s.965-.811 1.25-1.447c.285-.647.428-1.436.428-2.368V3.284h3.668v17.385c0 1.568-.302 2.911-.905 4.03a6.104 6.104 0 0 1-2.533 2.549c-1.097.581-2.396.872-3.898.872zm15.412-11.052.23-5.049-4.243 2.747-1.316-2.27 4.506-2.303-4.506-2.303 1.316-2.303 4.243 2.747-.23-5.049h2.599l-.23 5.049 4.243-2.747 1.316 2.303-4.507 2.303 4.507 2.303-1.316 2.27-4.243-2.747.23 5.049h-2.599z" style="fill:var(--color1, #fafafa)"/>
    </symbol>
    <symbol id="icon-close" viewBox="0 0 32 32">
      <path fill="none" stroke="#fafafa" stroke-linecap="round" stroke-linejoin="round" stroke-width="2.667" d="M24 8 8 24M8 8l16 16" style="stroke:var(--color1, #fafafa)"/>
    </symbol>
    <!-- svg-icons WITHOUT color -->
    <symbol id="icon-arrow-left-circle" viewBox="0 0 32 32">
      <path stroke-width=".471" d="M16 31.765C7.293 31.765.235 24.707.235 16S7.293.235 16 .235 31.765 7.293 31.765 16 24.707 31.765 16 31.765z"/>
      <path stroke-linecap="round" stroke-linejoin="round" stroke-width=".941" d="M21.02 16H10.981M14.745 19.765 10.98 16l3.765-3.765"/>
    </symbol>
    <symbol id="icon-arrow-right-circle" viewBox="0 0 32 32">
      <path stroke-width=".471" d="M16 .235C24.707.235 31.765 7.293 31.765 16S24.707 31.765 16 31.765.235 24.707.235 16 7.293.235 16 .235z"/>
      <path stroke-linecap="round" stroke-linejoin="round" stroke-width=".941" d="M10.98 16h10.039M17.255 12.235 21.02 16l-3.765 3.765"/>
    </symbol>
    <symbol id="icon-arrow-left" viewBox="0 0 32 32">
      <path stroke-linecap="round" stroke-linejoin="round" stroke-width="2" d="M26.667 16H5.334M13.333 24l-8-8 8-8"/>
    </symbol>
    <symbol id="icon-arrow-right" viewBox="0 0 32 32">
      <path stroke-linecap="round" stroke-linejoin="round" stroke-width="2" d="M5.333 16h21.333M18.667 8l8 8-8 8"/>
    </symbol>
  </defs>
</svg>