<svg xmlns="http://www.w3.org/2000/svg" aria-hidden="true" style="position:absolute;width:0;height:0;overflow:hidden">
  <defs>
  <!-- svg-icons WITH color #fafafa -->
    <symbol id="icon-arrow-down" viewBox="0 0 32 32">
      <path fill="none" stroke="#fafafa" stroke-width=".762" d="M16 .381C24.626.381 31.619 7.374 31.619 16S24.626 31.619 16 31.619.381 24.626.381 16 7.374.381 16 .381z" style="stroke:var(--color1, #fafafa)"/>
      <path fill="none" stroke="#fafafa" stroke-width="1.524" d="M19.81 14.095 16 17.905l-3.81-3.81" style="stroke:var(--color1, #fafafa)"/>
    </symbol>
    <symbol id="icon-arrow-up" viewBox="0 0 32 32">
      <path fill="none" stroke="#fafafa" stroke-width=".762" d="M16 31.619c8.626 0 15.619-6.993 15.619-15.619S24.626.381 16 .381.381 7.374.381 16 7.374 31.619 16 31.619z" style="stroke:var(--color1, #fafafa)"/>
      <path fill="none" stroke="#fafafa" stroke-width="1.524" d="M19.81 17.905 16 14.095l-3.81 3.81" style="stroke:var(--color1, #fafafa)"/>
    </symbol>
    <symbol id="icon-user" viewBox="0 0 32 32">
      <path fill="none" stroke="#fafafa" stroke-linecap="round" stroke-linejoin="round" stroke-width="2.667" d="M26.667 28c0-1.861 0-2.791-.23-3.548a5.333 5.333 0 0 0-3.556-3.556c-.757-.23-1.687-.23-3.548-.23h-6.667c-1.861 0-2.791 0-3.548.23a5.335 5.335 0 0 0-3.556 3.556c-.23.757-.23 1.687-.23 3.548M16 16a6 6 0 1 0 0-12 6 6 0 0 0 0 12z" style="stroke:var(--color1, #fafafa)"/>
    </symbol>
    <symbol id="icon-message-chat" viewBox="0 0 32 32">
      <path fill="none" stroke="#fafafa" stroke-linecap="round" stroke-linejoin="round" stroke-width="2.667" d="M8.126 14.972A10.66 10.66 0 0 1 8 13.334C8 7.443 12.807 2.667 18.737 2.667s10.737 4.776 10.737 10.667c0 1.331-.245 2.605-.693 3.779-.093.244-.14.366-.161.461s-.029.161-.031.257c-.002.097.011.205.037.42l.537 4.36c.058.472.087.708.009.88a.667.667 0 0 1-.343.335c-.173.075-.409.04-.879-.029l-4.247-.623a2.965 2.965 0 0 0-.434-.048c-.1.001-.169.008-.267.028s-.225.068-.477.163a10.78 10.78 0 0 1-3.787.683c-.558 0-1.105-.042-1.64-.124m-6.923 5.457c3.953 0 7.158-3.283 7.158-7.333s-3.205-7.333-7.158-7.333c-3.953 0-7.158 3.283-7.158 7.333 0 .814.13 1.597.369 2.329.101.309.152.464.168.57.017.11.02.172.014.284-.006.107-.033.227-.086.469l-.815 3.682 3.993-.545c.218-.03.327-.045.422-.044.1.001.153.006.252.026.093.019.232.067.51.165a6.994 6.994 0 0 0 2.332.398z" style="stroke:var(--color1, #fafafa)"/>
    </symbol>
    <symbol id="icon-brush" viewBox="0 0 32 32">
      <path fill="none" stroke="#fafafa" stroke-linecap="round" stroke-linejoin="round" stroke-width="2.667" d="M17.037 20 12 14.963M2.667 29.333c2.667 0 6.144.456 7.966-1.367a4.668 4.668 0 0 0-6.6-6.6c-1.823 1.822 0 5.3-1.367 7.967z" style="stroke:var(--color1, #fafafa)"/>
      <path fill="none" stroke="#fafafa" stroke-linecap="round" stroke-linejoin="round" stroke-width="2.667" d="M10.667 21.333c-.655-.655-.983-.983-1.168-1.326a2.668 2.668 0 0 1 .05-2.623c.198-.336.538-.651 1.218-1.28L23.924 3.921a2.94 2.94 0 0 1 4.153 4.153L15.894 21.231c-.63.68-.944 1.02-1.28 1.218-.805.475-1.8.495-2.623.05-.343-.185-.671-.513-1.326-1.168z" style="stroke:var(--color1, #fafafa)"/>
    </symbol>
    <symbol id="icon-hourglass" viewBox="0 0 32 32">
      <path fill="none" stroke="#fafafa" stroke-linecap="round" stroke-linejoin="round" stroke-width="2.667" d="M24.217 2.667H7.783c-.617 0-1.117.5-1.117 1.117a13.4 13.4 0 0 0 3.925 9.475l1.626 1.626c.161.161.242.242.3.32a1.335 1.335 0 0 1 0 1.594c-.058.077-.139.158-.3.32l-1.626 1.626a13.4 13.4 0 0 0-3.925 9.475c0 .617.5 1.117 1.117 1.117h16.434c.617 0 1.117-.5 1.117-1.117a13.4 13.4 0 0 0-3.925-9.475l-1.626-1.626c-.161-.161-.242-.242-.3-.32a1.332 1.332 0 0 1 0-1.594c.058-.077.139-.158.3-.32l1.626-1.626a13.4 13.4 0 0 0 3.925-9.475c0-.617-.5-1.117-1.117-1.117z" style="stroke:var(--color1, #fafafa)"/>
    </symbol>
    <symbol id="icon-jeff" viewBox="0 0 32 32">
      <path fill="#fafafa" d="m27.971 15.579.117-2.468-2.156 1.343-.669-1.109 2.29-1.126-2.29-1.126.669-1.126 2.156 1.343-.117-2.468h1.321l-.117 2.468 2.157-1.343.669 1.126-2.29 1.126 2.29 1.126-.669 1.109-2.157-1.343.117 2.468h-1.321zM23.106 11.579v1.417h-5.422v-1.417h5.422zm-3.944 9.053V10.527c0-.561.132-1.028.395-1.401a2.436 2.436 0 0 1 1.048-.842 3.477 3.477 0 0 1 1.401-.283c.384 0 .71.03.98.089s.467.111.593.154l-.447 1.425a4.79 4.79 0 0 0-.335-.089 2.155 2.155 0 0 0-.498-.049c-.453 0-.779.108-.98.324-.2.211-.301.518-.301.923v9.854h-1.856z" style="fill:var(--color1, #fafafa)"/>
      <path fill="#fafafa" d="M18.054 11.579v1.417h-5.422v-1.417h5.422zm-3.944 9.053V10.527c0-.561.132-1.028.395-1.401a2.436 2.436 0 0 1 1.048-.842 3.477 3.477 0 0 1 1.401-.283c.384 0 .71.03.98.089s.467.111.593.154l-.447 1.425a4.79 4.79 0 0 0-.335-.089 2.155 2.155 0 0 0-.498-.049c-.453 0-.779.108-.98.324-.2.211-.301.518-.301.923v9.854H14.11zM8.646 20.632c-.91 0-1.698-.19-2.363-.57s-1.179-.914-1.539-1.604c-.355-.695-.533-1.505-.533-2.43 0-.92.175-1.73.524-2.43.355-.7.852-1.246 1.49-1.636.643-.396 1.398-.593 2.263-.593.527 0 1.037.083 1.531.249s.938.428 1.331.786c.394.358.705.823.932 1.395.233.572.349 1.262.349 2.069v.626H5.233v-1.307h6.466l-.84.433c0-.551-.089-1.037-.266-1.46s-.444-.751-.799-.986c-.349-.241-.785-.361-1.306-.361s-.968.12-1.34.361c-.366.241-.646.559-.84.954s-.291.829-.291 1.299v.89c0 .615.111 1.136.333 1.564s.53.754.924.978c.399.225.863.337 1.39.337.344 0 .655-.048.932-.144.283-.096.527-.241.732-.433s.361-.43.466-.714l1.714.313c-.139.481-.383.904-.732 1.267s-.791.647-1.323.85c-.527.198-1.129.297-1.806.297zM1.439 11.506h1.708v9.688c.005.607-.1 1.12-.316 1.537s-.532.732-.949.944C1.466 23.892.954 24 .348 24H0v-1.521h.277c.411 0 .706-.111.886-.333s.271-.542.277-.96v-9.68zm.846-1.399c-.3 0-.556-.103-.767-.309s-.316-.453-.316-.74c0-.293.105-.542.316-.748s.467-.309.767-.309c.295 0 .548.103.759.309a.997.997 0 0 1 .324.748.987.987 0 0 1-.324.74 1.048 1.048 0 0 1-.759.309z" style="fill:var(--color1, #fafafa)"/>
    </symbol>
    <symbol id="icon-j" viewBox="0 0 32 32">
      <path fill="#fafafa" d="M7.829 28.118c-1.393 0-2.643-.247-3.75-.74-1.107-.504-1.985-1.239-2.632-2.204s-.97-2.138-.97-3.52v-.477h3.668v.477c0 .669.154 1.256.461 1.76.318.504.751.894 1.299 1.168.559.263 1.201.395 1.924.395.778 0 1.442-.165 1.99-.493s.965-.811 1.25-1.447c.285-.647.428-1.436.428-2.368V3.284h3.668v17.385c0 1.568-.302 2.911-.905 4.03a6.104 6.104 0 0 1-2.533 2.549c-1.097.581-2.396.872-3.898.872zm15.412-11.052.23-5.049-4.243 2.747-1.316-2.27 4.506-2.303-4.506-2.303 1.316-2.303 4.243 2.747-.23-5.049h2.599l-.23 5.049 4.243-2.747 1.316 2.303-4.507 2.303 4.507 2.303-1.316 2.27-4.243-2.747.23 5.049h-2.599z" style="fill:var(--color1, #fafafa)"/>
    </symbol>
    <symbol id="icon-close" viewBox="0 0 32 32">
      <path fill="none" stroke="#fafafa" stroke-linecap="round" stroke-linejoin="round" stroke-width="2.667" d="M24 8 8 24M8 8l16 16" style="stroke:var(--color1, #fafafa)"/>
    </symbol>
    <symbol id="icon-jefferson" viewBox="0 0 128 32">
      <path fill="#fafafa" d="M3.071 7.744h3.214v17.723c.01 1.111-.189 2.049-.595 2.813s-1.002 1.339-1.786 1.726c-.784.397-1.746.595-2.887.595H.362v-2.783h.521c.774 0 1.329-.203 1.667-.61s.511-.992.521-1.756V7.744zm1.593-2.559c-.566 0-1.047-.188-1.443-.565s-.595-.828-.595-1.354c0-.536.198-.992.595-1.369s.878-.565 1.443-.565a2 2 0 0 1 1.429.565c.407.377.61.833.61 1.369 0 .526-.203.977-.61 1.354a2 2 0 0 1-1.429.565zm11.265 19.538c-1.627 0-3.036-.352-4.226-1.057S9.595 21.97 8.95 20.69c-.635-1.29-.952-2.793-.952-4.509 0-1.706.313-3.209.938-4.509.635-1.3 1.523-2.312 2.664-3.036 1.151-.734 2.5-1.101 4.048-1.101.942 0 1.855.154 2.738.461s1.677.794 2.381 1.458c.704.665 1.26 1.528 1.667 2.589.417 1.062.625 2.341.625 3.839v1.161H9.83v-2.426h11.563l-1.503.804c0-1.022-.159-1.925-.476-2.708s-.794-1.394-1.429-1.83c-.625-.446-1.404-.67-2.336-.67s-1.731.223-2.396.67c-.655.446-1.156 1.037-1.503 1.771s-.521 1.538-.521 2.411v1.652c0 1.141.198 2.108.595 2.902s.947 1.399 1.652 1.815c.714.417 1.543.625 2.485.625.615 0 1.171-.089 1.667-.268.506-.179.942-.446 1.31-.804s.645-.799.833-1.324l3.066.58c-.248.893-.685 1.677-1.31 2.351s-1.414 1.2-2.366 1.577c-.942.367-2.019.551-3.229.551zM32.626 7.744v2.604h-9.39V7.744h9.39zm-6.83 16.637V5.81c0-1.032.228-1.89.684-2.574a4.294 4.294 0 0 1 1.815-1.548 5.734 5.734 0 0 1 2.426-.521c.665 0 1.23.055 1.696.164s.809.203 1.027.283l-.774 2.619a8.2 8.2 0 0 0-.58-.164 3.47 3.47 0 0 0-.863-.089c-.784 0-1.349.198-1.696.595-.347.387-.521.952-.521 1.696v18.11h-3.214zM41.987 7.744v2.604h-9.39V7.744h9.39zm-6.83 16.637V5.81c0-1.032.228-1.89.684-2.574a4.288 4.288 0 0 1 1.815-1.548 5.734 5.734 0 0 1 2.426-.521c.665 0 1.23.055 1.696.164s.809.203 1.027.283l-.774 2.619a8.2 8.2 0 0 0-.58-.164 3.47 3.47 0 0 0-.863-.089c-.784 0-1.349.198-1.696.595-.347.387-.521.952-.521 1.696v18.11h-3.214zm14.777.342c-1.627 0-3.036-.352-4.226-1.057S43.6 21.97 42.955 20.69c-.635-1.29-.952-2.793-.952-4.509 0-1.706.312-3.209.937-4.509.635-1.3 1.523-2.312 2.664-3.036 1.151-.734 2.5-1.101 4.048-1.101.942 0 1.855.154 2.738.461s1.676.794 2.381 1.458c.704.665 1.26 1.528 1.667 2.589.417 1.062.625 2.341.625 3.839v1.161H43.834v-2.426h11.563l-1.503.804c0-1.022-.159-1.925-.476-2.708s-.794-1.394-1.429-1.83c-.625-.446-1.404-.67-2.336-.67s-1.731.223-2.396.67c-.655.446-1.156 1.037-1.503 1.771s-.521 1.538-.521 2.411v1.652c0 1.141.198 2.108.595 2.902s.947 1.399 1.652 1.815c.714.417 1.543.625 2.485.625.615 0 1.171-.089 1.667-.268.506-.179.942-.446 1.31-.804s.645-.799.833-1.324l3.065.58c-.248.893-.684 1.677-1.31 2.351s-1.414 1.2-2.366 1.577c-.942.367-2.019.551-3.229.551zm8.78-.342V7.744h3.11v2.664h.179a4.08 4.08 0 0 1 1.607-2.113c.774-.526 1.647-.789 2.619-.789.198 0 .432.01.699.03.278.01.501.025.67.045v3.095a4.582 4.582 0 0 0-.699-.119c-.327-.04-.66-.06-.997-.06-.764 0-1.448.164-2.053.491a3.64 3.64 0 0 0-1.414 1.324c-.337.556-.506 1.2-.506 1.935v10.134h-3.214zm22.278-12.56-2.931.506c-.189-.556-.541-1.066-1.057-1.533-.506-.466-1.265-.699-2.277-.699-.913 0-1.677.208-2.292.625-.605.407-.908.928-.908 1.563 0 .556.203 1.007.61 1.354.417.347 1.076.625 1.979.833l2.664.595c1.518.347 2.654.893 3.408 1.637s1.131 1.696 1.131 2.857a4.415 4.415 0 0 1-.863 2.679c-.575.774-1.374 1.384-2.396 1.83-1.022.437-2.203.655-3.542.655-1.865 0-3.383-.402-4.553-1.205s-1.89-1.934-2.158-3.393l3.11-.476c.198.814.6 1.429 1.205 1.845.615.417 1.409.625 2.381.625 1.052 0 1.895-.223 2.53-.67.645-.446.967-.987.967-1.622 0-1.052-.784-1.761-2.351-2.128l-2.813-.625c-1.558-.357-2.708-.918-3.452-1.682-.734-.774-1.101-1.746-1.101-2.917 0-.982.273-1.845.818-2.589.556-.744 1.315-1.319 2.277-1.726.972-.417 2.078-.625 3.318-.625 1.806 0 3.219.392 4.241 1.176 1.032.784 1.716 1.82 2.054 3.11zm8.959 12.902c-1.558 0-2.922-.357-4.092-1.071-1.161-.714-2.063-1.716-2.708-3.006-.635-1.29-.952-2.788-.952-4.494 0-1.726.317-3.234.952-4.524.645-1.3 1.548-2.307 2.708-3.021 1.171-.714 2.535-1.071 4.092-1.071 1.567 0 2.931.357 4.092 1.071s2.064 1.721 2.708 3.021c.645 1.29.967 2.798.967 4.524 0 1.706-.322 3.204-.967 4.494s-1.548 2.292-2.708 3.006c-1.161.714-2.525 1.071-4.092 1.071zm0-2.723c1.022 0 1.865-.268 2.53-.803s1.156-1.245 1.473-2.128c.327-.893.491-1.865.491-2.917 0-1.071-.164-2.054-.491-2.946-.317-.893-.809-1.607-1.473-2.143s-1.508-.804-2.53-.804c-1.012 0-1.85.268-2.515.804-.655.536-1.146 1.25-1.473 2.143s-.491 1.875-.491 2.946c0 1.052.164 2.024.491 2.917.327.883.818 1.592 1.473 2.128.665.536 1.503.803 2.515.803zm12.708-7.485v9.866h-3.214V7.744h3.125v2.738h.223a4.632 4.632 0 0 1 1.771-2.143c.804-.536 1.835-.804 3.095-.804 1.131 0 2.118.238 2.961.714.853.466 1.513 1.166 1.979 2.098.476.933.714 2.088.714 3.467v10.565h-3.214V14.2c0-1.2-.317-2.143-.952-2.827-.635-.694-1.498-1.042-2.589-1.042-.744 0-1.414.169-2.009.506-.585.327-1.047.799-1.384 1.414s-.506 1.369-.506 2.262zm17.724.164.208-4.568-3.839 2.485-1.191-2.054 4.077-2.083-4.077-2.083 1.191-2.083 3.839 2.485-.208-4.568h2.351l-.208 4.568 3.839-2.485 1.191 2.083-4.077 2.083 4.077 2.083-1.191 2.054-3.839-2.485.208 4.568h-2.351z" style="fill:var(--color1, #fafafa)"/>
    </symbol>
    <!-- svg-icons WITHOUT color -->
    <symbol id="icon-arrow-left-circle" viewBox="0 0 32 32">
      <path stroke-width=".471" d="M16 31.765C7.293 31.765.235 24.707.235 16S7.293.235 16 .235 31.765 7.293 31.765 16 24.707 31.765 16 31.765z"/>
      <path stroke-linecap="round" stroke-linejoin="round" stroke-width=".941" d="M21.02 16H10.981M14.745 19.765 10.98 16l3.765-3.765"/>
    </symbol>
    <symbol id="icon-arrow-right-circle" viewBox="0 0 32 32">
      <path stroke-width=".471" d="M16 .235C24.707.235 31.765 7.293 31.765 16S24.707 31.765 16 31.765.235 24.707.235 16 7.293.235 16 .235z"/>
      <path stroke-linecap="round" stroke-linejoin="round" stroke-width=".941" d="M10.98 16h10.039M17.255 12.235 21.02 16l-3.765 3.765"/>
    </symbol>
    <symbol id="icon-arrow-left" viewBox="0 0 32 32">
      <path stroke-linecap="round" stroke-linejoin="round" stroke-width="2" d="M26.667 16H5.334M13.333 24l-8-8 8-8"/>
    </symbol>
    <symbol id="icon-arrow-right" viewBox="0 0 32 32">
      <path stroke-linecap="round" stroke-linejoin="round" stroke-width="2" d="M5.333 16h21.333M18.667 8l8 8-8 8"/>
    </symbol>
  </defs>
</svg>